<svg width="100" height="50" viewBox="0 0 100 50" fill="none" xmlns="http://www.w3.org/2000/svg">
<path d="M31.1266 37.63C30.19 35.0264 28.2626 33.7244 25.3443 33.7238H24.4236V49.7834H25.3443C27.5999 49.7834 29.2647 48.8943 30.3388 47.1162C31.2437 45.5985 31.6961 43.6673 31.6961 41.3226C31.694 39.9279 31.5041 38.697 31.1266 37.63Z" fill="white"/>
<path d="M15.3241 37.8225C16.2617 40.426 18.1889 41.7278 21.1055 41.7278H22.0263V25.6683H21.1055C18.85 25.6683 17.1852 26.5573 16.1111 28.3355C15.2089 29.8526 14.7575 31.7838 14.757 34.129C14.757 35.5221 14.946 36.7533 15.3241 37.8225Z" fill="white"/>
<path d="M0 0.0209656H12.2525V4.2743H4.39833V6.40096H10.9233V10.4368H4.39833V12.5876H12.2525V16.841H0V0.0209656Z" fill="white"/>
<path d="M18.4142 0H34.2675L26.3408 17.1825L18.4142 0ZM26.3408 15.0558L32.89 0.894164H19.8158L26.3408 15.0558Z" fill="white"/>
<path d="M40.5991 0.0201416H52.8516V4.27347H44.9975V6.40014H51.5225V10.436H44.9975V12.5868H52.8516V16.8401H40.5991V0.0201416Z" fill="white"/>
<path d="M60.3915 16.816V0H61.334L73.079 11.4308V0H73.9731V16.82L60.3915 16.816Z" fill="white"/>
<path d="M86.8058 16.8401V4.27347H80.45V0.0201416H94.0316V4.27347H87.6758V16.8401H86.8058Z" fill="white"/>
<path d="M7.225 29.0201C8.28833 29.0201 9.13417 29.1813 9.7625 29.5035C10.4844 29.8557 11.0908 30.4066 11.5103 31.0916C11.9299 31.7765 12.1451 32.567 12.1308 33.3701C12.1352 34.1443 11.9171 34.9034 11.5025 35.5572C11.0811 36.2278 10.4889 36.7741 9.78666 37.1401C10.6587 37.4477 11.4227 38.0018 11.9858 38.7351C12.5704 39.4604 12.8862 40.3654 12.88 41.2968C12.8862 42.1108 12.6643 42.9103 12.2396 43.6047C11.8241 44.2944 11.2372 44.8647 10.5358 45.2601C10.1635 45.4601 9.76487 45.6065 9.35167 45.6951C8.91667 45.7918 8.33667 45.8401 7.61167 45.8401H0.168335V29.0201H7.225Z" fill="white"/>
<path d="M35.5604 44.6197C34.2956 43.5161 33.6713 41.8607 33.6874 39.6535H37.6266C37.6105 40.5718 37.8844 41.2726 38.4483 41.756C39.0122 42.2393 39.8016 42.481 40.8166 42.481C41.6544 42.481 42.3149 42.344 42.7983 42.0701C43.2816 41.7962 43.5233 41.3773 43.5233 40.8135C43.5233 40.3462 43.2776 40.0079 42.7862 39.7985C42.3169 39.5957 41.8265 39.4458 41.3241 39.3514C40.8408 39.2628 40.5427 39.2091 40.4299 39.1903C39.3351 38.9878 38.2597 38.6913 37.2158 38.3042C36.3393 37.9783 35.5584 37.4383 34.9441 36.7333C34.3319 36.0244 34.0258 35.09 34.0258 33.93C34.0258 32.77 34.3319 31.7832 34.9441 30.9696C35.5563 30.156 36.374 29.5478 37.397 29.145C38.4646 28.7341 39.6003 28.5291 40.7441 28.5408C42.2102 28.5408 43.479 28.8147 44.5503 29.3625C45.6217 29.9103 46.4635 30.74 47.0758 31.8517C47.3599 32.3218 47.5487 32.8432 47.6316 33.3862C47.6951 33.8629 47.7274 34.3433 47.7283 34.8242H43.7891C43.7891 33.9542 43.5555 33.3137 43.0883 32.9029C42.621 32.4921 41.896 32.2867 40.9133 32.2867C40.1238 32.2867 39.5116 32.4236 39.0766 32.6975C38.6416 32.9714 38.4241 33.3419 38.4241 33.8092C38.4241 34.3247 38.7141 34.7033 39.2941 34.945C40.0066 35.2266 40.7425 35.4449 41.4933 35.5975C42.9433 35.8875 44.0751 36.1654 44.8887 36.4312C45.7089 36.7016 46.4399 37.1904 47.0033 37.845C47.5994 38.5217 47.8974 39.4722 47.8974 40.6966C47.8974 41.8566 47.5752 42.8555 46.9308 43.6933C46.2863 44.5311 45.4365 45.1715 44.3812 45.6146C43.2974 46.0632 42.1345 46.2892 40.9616 46.2792C38.6255 46.2765 36.8251 45.7233 35.5604 44.6197Z" fill="white"/>
<path d="M57.8058 45.8401V33.2735H51.45V29.0201H65.0316V33.2735H58.6758V45.8401H57.8058Z" fill="white"/>
<path d="M69.5991 29.0201H81.8516V33.2735H73.9975V35.4001H80.5224V39.436H73.9975V41.5868H81.8516V45.8401H69.5991V29.0201Z" fill="white"/>
<path d="M100 45.8401H87.0708V29.0201H93.62C95.0216 29.0201 96.1655 29.2699 97.0516 29.7693C97.8983 30.2298 98.6009 30.9157 99.0816 31.751C99.5669 32.5961 99.8172 33.5557 99.8066 34.5301C99.8181 35.7537 99.4085 36.9439 98.6466 37.9014C97.9165 38.8632 96.8881 39.5558 95.7225 39.871L100 45.8401ZM87.965 30.4943V39.1701H94.1758L87.965 30.4943ZM87.965 44.946H98.3083L94.78 40.0401L94.0308 40.0643H87.965V44.946ZM88.5933 29.9143L95.1666 39.0976C96.222 38.8866 97.1707 38.314 97.8491 37.4785C98.5468 36.6557 98.9244 35.6089 98.9125 34.5301C98.9222 33.6798 98.6963 32.8434 98.26 32.1135C97.8254 31.3888 97.1864 30.8087 96.4233 30.446C95.7144 30.0915 94.788 29.9143 93.6441 29.9143H88.5933Z" fill="white"/>
</svg>
